<mxfile>
    <diagram id="jDcv3fzu0rLkTPsqRP5o" name="Login">
        <mxGraphModel dx="1071" dy="790" grid="1" gridSize="10" guides="1" tooltips="1" connect="1" arrows="1" fold="1" page="1" pageScale="1" pageWidth="1100" pageHeight="850" math="0" shadow="0">
            <root>
                <mxCell id="z9wff9TgrtGifHPHHgnF-0"/>
                <mxCell id="z9wff9TgrtGifHPHHgnF-1" parent="z9wff9TgrtGifHPHHgnF-0"/>
            </root>
        </mxGraphModel>
    </diagram>
    <diagram id="yi6lMb9LrqZfUyZzvOUq" name="New Device">
        <mxGraphModel dx="1071" dy="790" grid="1" gridSize="10" guides="1" tooltips="1" connect="1" arrows="1" fold="1" page="1" pageScale="1" pageWidth="1100" pageHeight="850" math="0" shadow="0">
            <root>
                <mxCell id="0DZnBsxqWXMRiNJLTBVr-0"/>
                <mxCell id="0DZnBsxqWXMRiNJLTBVr-1" parent="0DZnBsxqWXMRiNJLTBVr-0"/>
                <mxCell id="0DZnBsxqWXMRiNJLTBVr-16" value="&lt;b&gt;interaction &lt;/b&gt;Register a new device &lt;b&gt;lifelines&lt;/b&gt;" style="shape=umlFrame;whiteSpace=wrap;html=1;width=260;height=30;boundedLbl=1;verticalAlign=middle;align=left;spacingLeft=5;shadow=0;sketch=0;" parent="0DZnBsxqWXMRiNJLTBVr-1" vertex="1">
                    <mxGeometry x="175" y="260" width="750" height="530" as="geometry"/>
                </mxCell>
                <mxCell id="0DZnBsxqWXMRiNJLTBVr-54" style="edgeStyle=orthogonalEdgeStyle;rounded=0;sketch=0;orthogonalLoop=1;jettySize=auto;html=1;endArrow=classic;endFill=1;strokeColor=#000000;fontSize=10;entryX=0.5;entryY=0;entryDx=0;entryDy=0;" parent="0DZnBsxqWXMRiNJLTBVr-1" source="0DZnBsxqWXMRiNJLTBVr-33" target="xS9mSPrEJZxY4s5tQD06-5" edge="1">
                    <mxGeometry relative="1" as="geometry">
                        <Array as="points">
                            <mxPoint x="335" y="570"/>
                        </Array>
                    </mxGeometry>
                </mxCell>
                <mxCell id="0DZnBsxqWXMRiNJLTBVr-33" value="&lt;b&gt;sd&lt;/b&gt;&amp;nbsp;Register a new device" style="shape=umlFrame;tabPosition=left;html=1;boundedLbl=1;labelInHeader=1;width=150;height=35;shadow=0;sketch=0;align=left;" parent="0DZnBsxqWXMRiNJLTBVr-1" vertex="1">
                    <mxGeometry x="525" y="305" width="370" height="285" as="geometry"/>
                </mxCell>
                <mxCell id="0DZnBsxqWXMRiNJLTBVr-2" value="When log into a new device, it will register this new device to the central server." style="shape=note2;boundedLbl=1;whiteSpace=wrap;html=1;size=25;verticalAlign=middle;align=left;shadow=0;sketch=1;spacingLeft=10;spacing=0;spacingTop=0;" parent="0DZnBsxqWXMRiNJLTBVr-1" vertex="1">
                    <mxGeometry x="185" y="70" width="190" height="110" as="geometry"/>
                </mxCell>
                <mxCell id="0DZnBsxqWXMRiNJLTBVr-4" value="&amp;lt;&amp;lt;golang&amp;gt;&amp;gt;&lt;br&gt;:RegisterDevice" style="shape=umlLifeline;perimeter=lifelinePerimeter;whiteSpace=wrap;html=1;container=1;collapsible=0;recursiveResize=0;outlineConnect=0;shadow=0;sketch=0;align=center;" parent="0DZnBsxqWXMRiNJLTBVr-1" vertex="1">
                    <mxGeometry x="545" y="360" width="100" height="210" as="geometry"/>
                </mxCell>
                <mxCell id="0DZnBsxqWXMRiNJLTBVr-5" value="" style="html=1;points=[];perimeter=orthogonalPerimeter;fillColor=#808080;sketch=0;" parent="0DZnBsxqWXMRiNJLTBVr-4" vertex="1">
                    <mxGeometry x="45" y="90" width="10" height="80" as="geometry"/>
                </mxCell>
                <mxCell id="0DZnBsxqWXMRiNJLTBVr-26" style="edgeStyle=orthogonalEdgeStyle;rounded=0;sketch=0;orthogonalLoop=1;jettySize=auto;html=1;endArrow=classic;endFill=1;strokeColor=#000000;" parent="0DZnBsxqWXMRiNJLTBVr-1" source="0DZnBsxqWXMRiNJLTBVr-15" target="i02IEfMk8TVbytWh-xJW-2" edge="1">
                    <mxGeometry relative="1" as="geometry"/>
                </mxCell>
                <mxCell id="0DZnBsxqWXMRiNJLTBVr-15" value="" style="ellipse;fillColor=#000000;strokeColor=none;shadow=0;sketch=0;align=left;" parent="0DZnBsxqWXMRiNJLTBVr-1" vertex="1">
                    <mxGeometry x="320" y="320" width="30" height="30" as="geometry"/>
                </mxCell>
                <mxCell id="0DZnBsxqWXMRiNJLTBVr-53" style="edgeStyle=orthogonalEdgeStyle;rounded=0;sketch=0;orthogonalLoop=1;jettySize=auto;html=1;endArrow=classic;endFill=1;strokeColor=#000000;fontSize=10;" parent="0DZnBsxqWXMRiNJLTBVr-1" source="0DZnBsxqWXMRiNJLTBVr-20" target="0DZnBsxqWXMRiNJLTBVr-33" edge="1">
                    <mxGeometry relative="1" as="geometry"/>
                </mxCell>
                <mxCell id="0DZnBsxqWXMRiNJLTBVr-20" value="&lt;b&gt;ref&lt;/b&gt;" style="shape=umlFrame;tabPosition=left;html=1;boundedLbl=1;labelInHeader=1;width=50;height=30;shadow=0;sketch=0;align=left;" parent="0DZnBsxqWXMRiNJLTBVr-1" vertex="1">
                    <mxGeometry x="245" y="520" width="180" height="40" as="geometry"/>
                </mxCell>
                <mxCell id="0DZnBsxqWXMRiNJLTBVr-21" value="Collect device infos,&#10;Generate a device fingerprint" style="text;align=center;fontSize=10;" parent="0DZnBsxqWXMRiNJLTBVr-20" vertex="1">
                    <mxGeometry width="120" height="30" relative="1" as="geometry">
                        <mxPoint x="50" y="2" as="offset"/>
                    </mxGeometry>
                </mxCell>
                <mxCell id="0DZnBsxqWXMRiNJLTBVr-42" value="" style="ellipse;html=1;shape=endState;fillColor=#000000;strokeColor=#000000;shadow=0;sketch=0;align=left;" parent="0DZnBsxqWXMRiNJLTBVr-1" vertex="1">
                    <mxGeometry x="320" y="750" width="30" height="30" as="geometry"/>
                </mxCell>
                <mxCell id="0DZnBsxqWXMRiNJLTBVr-51" style="edgeStyle=orthogonalEdgeStyle;rounded=0;sketch=0;orthogonalLoop=1;jettySize=auto;html=1;endArrow=classic;endFill=1;strokeColor=#000000;fontSize=10;" parent="0DZnBsxqWXMRiNJLTBVr-1" source="0DZnBsxqWXMRiNJLTBVr-47" target="0DZnBsxqWXMRiNJLTBVr-20" edge="1">
                    <mxGeometry relative="1" as="geometry"/>
                </mxCell>
                <mxCell id="0DZnBsxqWXMRiNJLTBVr-47" value="&lt;b&gt;ref&lt;/b&gt;" style="shape=umlFrame;tabPosition=left;html=1;boundedLbl=1;labelInHeader=1;width=50;height=30;shadow=0;sketch=0;align=left;" parent="0DZnBsxqWXMRiNJLTBVr-1" vertex="1">
                    <mxGeometry x="245" y="450" width="180" height="40" as="geometry"/>
                </mxCell>
                <mxCell id="0DZnBsxqWXMRiNJLTBVr-48" value="Generate a RSA key pair" style="text;align=center;fontSize=10;" parent="0DZnBsxqWXMRiNJLTBVr-47" vertex="1">
                    <mxGeometry width="110" height="30" relative="1" as="geometry">
                        <mxPoint x="50" y="10" as="offset"/>
                    </mxGeometry>
                </mxCell>
                <mxCell id="0DZnBsxqWXMRiNJLTBVr-55" value="&amp;lt;&amp;lt;service&amp;gt;&amp;gt;&lt;br&gt;:DevicesService" style="shape=umlLifeline;perimeter=lifelinePerimeter;whiteSpace=wrap;html=1;container=1;collapsible=0;recursiveResize=0;outlineConnect=0;shadow=0;sketch=0;align=center;" parent="0DZnBsxqWXMRiNJLTBVr-1" vertex="1">
                    <mxGeometry x="765" y="360" width="100" height="210" as="geometry"/>
                </mxCell>
                <mxCell id="0DZnBsxqWXMRiNJLTBVr-56" value="" style="html=1;points=[];perimeter=orthogonalPerimeter;fillColor=#808080;sketch=0;" parent="0DZnBsxqWXMRiNJLTBVr-55" vertex="1">
                    <mxGeometry x="45" y="90" width="10" height="80" as="geometry"/>
                </mxCell>
                <mxCell id="0DZnBsxqWXMRiNJLTBVr-57" style="edgeStyle=orthogonalEdgeStyle;rounded=0;sketch=0;orthogonalLoop=1;jettySize=auto;html=1;endArrow=classic;endFill=1;strokeColor=#000000;fontSize=10;" parent="0DZnBsxqWXMRiNJLTBVr-1" edge="1">
                    <mxGeometry relative="1" as="geometry">
                        <mxPoint x="525" y="450" as="sourcePoint"/>
                        <mxPoint x="585" y="450" as="targetPoint"/>
                        <Array as="points">
                            <mxPoint x="575" y="450"/>
                            <mxPoint x="575" y="450"/>
                        </Array>
                    </mxGeometry>
                </mxCell>
                <mxCell id="0DZnBsxqWXMRiNJLTBVr-59" value="&amp;lt;&amp;lt;callback&amp;gt;&amp;gt;" style="edgeLabel;html=1;align=center;verticalAlign=middle;resizable=0;points=[];fontSize=10;" parent="0DZnBsxqWXMRiNJLTBVr-57" vertex="1" connectable="0">
                    <mxGeometry x="-0.0892" relative="1" as="geometry">
                        <mxPoint x="2.74" y="-10" as="offset"/>
                    </mxGeometry>
                </mxCell>
                <mxCell id="0DZnBsxqWXMRiNJLTBVr-62" style="edgeStyle=orthogonalEdgeStyle;rounded=0;sketch=0;orthogonalLoop=1;jettySize=auto;html=1;endArrow=classic;endFill=1;strokeColor=#000000;fontSize=10;entryX=0;entryY=0.25;entryDx=0;entryDy=0;entryPerimeter=0;" parent="0DZnBsxqWXMRiNJLTBVr-1" source="0DZnBsxqWXMRiNJLTBVr-5" target="0DZnBsxqWXMRiNJLTBVr-56" edge="1">
                    <mxGeometry relative="1" as="geometry">
                        <mxPoint x="605" y="470" as="sourcePoint"/>
                        <mxPoint x="665" y="470" as="targetPoint"/>
                        <Array as="points">
                            <mxPoint x="655" y="470"/>
                            <mxPoint x="655" y="470"/>
                        </Array>
                    </mxGeometry>
                </mxCell>
                <mxCell id="0DZnBsxqWXMRiNJLTBVr-63" value="PostDevInfo(pub_key, uid, token)" style="edgeLabel;html=1;align=center;verticalAlign=middle;resizable=0;points=[];fontSize=10;" parent="0DZnBsxqWXMRiNJLTBVr-62" vertex="1" connectable="0">
                    <mxGeometry x="-0.0892" relative="1" as="geometry">
                        <mxPoint x="2.74" y="-10" as="offset"/>
                    </mxGeometry>
                </mxCell>
                <mxCell id="i02IEfMk8TVbytWh-xJW-6" value="&lt;b&gt;POST&lt;/b&gt;: /api/devices/register/" style="edgeLabel;html=1;align=center;verticalAlign=middle;resizable=0;points=[];fontSize=10;" parent="0DZnBsxqWXMRiNJLTBVr-62" vertex="1" connectable="0">
                    <mxGeometry x="0.8413" y="1" relative="1" as="geometry">
                        <mxPoint x="-93.33" y="11" as="offset"/>
                    </mxGeometry>
                </mxCell>
                <mxCell id="0DZnBsxqWXMRiNJLTBVr-64" value="" style="html=1;verticalAlign=bottom;labelBackgroundColor=none;endArrow=block;endFill=1;dashed=1;strokeColor=#000000;fontSize=10;entryX=1.033;entryY=0.797;entryDx=0;entryDy=0;entryPerimeter=0;" parent="0DZnBsxqWXMRiNJLTBVr-1" source="0DZnBsxqWXMRiNJLTBVr-56" target="0DZnBsxqWXMRiNJLTBVr-5" edge="1">
                    <mxGeometry width="160" relative="1" as="geometry">
                        <mxPoint x="625" y="570" as="sourcePoint"/>
                        <mxPoint x="785" y="570" as="targetPoint"/>
                    </mxGeometry>
                </mxCell>
                <mxCell id="0DZnBsxqWXMRiNJLTBVr-65" value="&amp;lt;&amp;lt;json&amp;gt;&amp;gt;" style="edgeLabel;html=1;align=center;verticalAlign=middle;resizable=0;points=[];fontSize=10;" parent="0DZnBsxqWXMRiNJLTBVr-64" vertex="1" connectable="0">
                    <mxGeometry x="0.0355" y="-1" relative="1" as="geometry">
                        <mxPoint y="-7.76" as="offset"/>
                    </mxGeometry>
                </mxCell>
                <mxCell id="i02IEfMk8TVbytWh-xJW-7" value="{success, server_pub_key}" style="edgeLabel;html=1;align=center;verticalAlign=middle;resizable=0;points=[];fontSize=10;" parent="0DZnBsxqWXMRiNJLTBVr-64" vertex="1" connectable="0">
                    <mxGeometry x="-0.5103" relative="1" as="geometry">
                        <mxPoint x="-48.61" y="6.239999999999998" as="offset"/>
                    </mxGeometry>
                </mxCell>
                <mxCell id="xS9mSPrEJZxY4s5tQD06-3" style="edgeStyle=orthogonalEdgeStyle;rounded=0;orthogonalLoop=1;jettySize=auto;html=1;entryX=0.5;entryY=0;entryDx=0;entryDy=0;" parent="0DZnBsxqWXMRiNJLTBVr-1" source="xS9mSPrEJZxY4s5tQD06-0" target="0DZnBsxqWXMRiNJLTBVr-42" edge="1">
                    <mxGeometry relative="1" as="geometry"/>
                </mxCell>
                <mxCell id="xS9mSPrEJZxY4s5tQD06-0" value="&lt;b&gt;ref&lt;/b&gt;" style="shape=umlFrame;tabPosition=left;html=1;boundedLbl=1;labelInHeader=1;width=50;height=30;shadow=0;sketch=0;align=left;" parent="0DZnBsxqWXMRiNJLTBVr-1" vertex="1">
                    <mxGeometry x="245" y="670" width="180" height="50" as="geometry"/>
                </mxCell>
                <mxCell id="xS9mSPrEJZxY4s5tQD06-1" value="Save the private key and the server's public key as local files" style="text;align=center;fontSize=9;rounded=0;glass=0;whiteSpace=wrap;" parent="xS9mSPrEJZxY4s5tQD06-0" vertex="1">
                    <mxGeometry width="120" height="40" relative="1" as="geometry">
                        <mxPoint x="52" y="3" as="offset"/>
                    </mxGeometry>
                </mxCell>
                <mxCell id="xS9mSPrEJZxY4s5tQD06-6" style="edgeStyle=orthogonalEdgeStyle;rounded=0;orthogonalLoop=1;jettySize=auto;html=1;exitX=0.5;exitY=1;exitDx=0;exitDy=0;fontSize=10;" parent="0DZnBsxqWXMRiNJLTBVr-1" source="xS9mSPrEJZxY4s5tQD06-5" target="xS9mSPrEJZxY4s5tQD06-0" edge="1">
                    <mxGeometry relative="1" as="geometry"/>
                </mxCell>
                <mxCell id="xS9mSPrEJZxY4s5tQD06-7" value="[no errors]" style="edgeLabel;html=1;align=center;verticalAlign=middle;resizable=0;points=[];fontSize=10;" parent="xS9mSPrEJZxY4s5tQD06-6" vertex="1" connectable="0">
                    <mxGeometry x="-0.2298" y="-1" relative="1" as="geometry">
                        <mxPoint x="-34" as="offset"/>
                    </mxGeometry>
                </mxCell>
                <mxCell id="xS9mSPrEJZxY4s5tQD06-8" style="edgeStyle=orthogonalEdgeStyle;rounded=0;orthogonalLoop=1;jettySize=auto;html=1;exitX=1;exitY=0.5;exitDx=0;exitDy=0;entryX=1;entryY=0.5;entryDx=0;entryDy=0;fontSize=10;" parent="0DZnBsxqWXMRiNJLTBVr-1" source="xS9mSPrEJZxY4s5tQD06-5" target="0DZnBsxqWXMRiNJLTBVr-42" edge="1">
                    <mxGeometry relative="1" as="geometry">
                        <Array as="points">
                            <mxPoint x="450" y="625"/>
                            <mxPoint x="450" y="765"/>
                        </Array>
                    </mxGeometry>
                </mxCell>
                <mxCell id="xS9mSPrEJZxY4s5tQD06-9" value="[errors]" style="edgeLabel;html=1;align=center;verticalAlign=middle;resizable=0;points=[];fontSize=10;" parent="xS9mSPrEJZxY4s5tQD06-8" vertex="1" connectable="0">
                    <mxGeometry x="-0.1944" y="-1" relative="1" as="geometry">
                        <mxPoint x="-62" y="-55.2" as="offset"/>
                    </mxGeometry>
                </mxCell>
                <mxCell id="xS9mSPrEJZxY4s5tQD06-5" value="" style="rhombus;rounded=0;glass=0;fontSize=10;" parent="0DZnBsxqWXMRiNJLTBVr-1" vertex="1">
                    <mxGeometry x="320" y="610" width="30" height="30" as="geometry"/>
                </mxCell>
                <mxCell id="i02IEfMk8TVbytWh-xJW-1" style="rounded=0;orthogonalLoop=1;jettySize=auto;html=1;entryX=1.012;entryY=0.638;entryDx=0;entryDy=0;entryPerimeter=0;fontSize=10;dashed=1;endArrow=none;endFill=0;" parent="0DZnBsxqWXMRiNJLTBVr-1" source="i02IEfMk8TVbytWh-xJW-0" target="xS9mSPrEJZxY4s5tQD06-0" edge="1">
                    <mxGeometry relative="1" as="geometry"/>
                </mxCell>
                <mxCell id="i02IEfMk8TVbytWh-xJW-0" value="&lt;font color=&quot;#ff6666&quot;&gt;Now, the private key is linked with this new device, and the RegisterDevice() function should be locked, i.e. unless it is removed by the user on the central server, this device cannot be registered again. &lt;br&gt;&lt;br&gt;Any future incoming requests should have a encrypted (by server's private key) field :&amp;nbsp;&lt;b&gt;{ user_name }&lt;/b&gt;. Local server can check this user's permission on files easily.&lt;/font&gt;" style="shape=note2;boundedLbl=1;whiteSpace=wrap;html=1;size=25;verticalAlign=middle;align=left;shadow=0;sketch=1;spacingLeft=10;spacing=0;spacingTop=0;strokeColor=#FF9933;spacingRight=10;" parent="0DZnBsxqWXMRiNJLTBVr-1" vertex="1">
                    <mxGeometry x="520" y="610" width="380" height="150" as="geometry"/>
                </mxCell>
                <mxCell id="i02IEfMk8TVbytWh-xJW-5" style="rounded=0;orthogonalLoop=1;jettySize=auto;html=1;endArrow=classic;endFill=1;fontSize=10;" parent="0DZnBsxqWXMRiNJLTBVr-1" source="i02IEfMk8TVbytWh-xJW-2" target="0DZnBsxqWXMRiNJLTBVr-47" edge="1">
                    <mxGeometry relative="1" as="geometry"/>
                </mxCell>
                <mxCell id="i02IEfMk8TVbytWh-xJW-2" value="&lt;b&gt;ref&lt;/b&gt;" style="shape=umlFrame;tabPosition=left;html=1;boundedLbl=1;labelInHeader=1;width=50;height=30;shadow=0;sketch=0;align=left;" parent="0DZnBsxqWXMRiNJLTBVr-1" vertex="1">
                    <mxGeometry x="245" y="380" width="180" height="40" as="geometry"/>
                </mxCell>
                <mxCell id="i02IEfMk8TVbytWh-xJW-3" value="Login to get a TOKEN" style="text;align=center;fontSize=10;" parent="i02IEfMk8TVbytWh-xJW-2" vertex="1">
                    <mxGeometry width="110" height="30" relative="1" as="geometry">
                        <mxPoint x="50" y="10" as="offset"/>
                    </mxGeometry>
                </mxCell>
            </root>
        </mxGraphModel>
    </diagram>
    <diagram id="0cySa9LYHznzlsTm-bIY" name="Set Permission">
        &#xa;        &#xa;&#xa;
        <mxGraphModel dx="1071" dy="790" grid="1" gridSize="10" guides="1" tooltips="1" connect="1" arrows="1" fold="1" page="1" pageScale="1" pageWidth="1100" pageHeight="850" math="0" shadow="0">
            &#xa;            &#xa;&#xa;
            <root>
                &#xa;                &#xa;&#xa;
                <mxCell id="oidBldROMELVf3y3o3gt-0"/>
                &#xa;                &#xa;&#xa;
                <mxCell id="oidBldROMELVf3y3o3gt-1" parent="oidBldROMELVf3y3o3gt-0"/>
                &#xa;                &#xa;&#xa;
            </root>
            &#xa;            &#xa;&#xa;
        </mxGraphModel>
        &#xa;        &#xa;&#xa;
    </diagram>
    <diagram id="dv7zl83p_bAvg8zwQePH" name="Access Files">
        &#xa;        &#xa;&#xa;
        <mxGraphModel dx="1260" dy="929" grid="1" gridSize="10" guides="1" tooltips="1" connect="1" arrows="1" fold="1" page="1" pageScale="1" pageWidth="1100" pageHeight="850" math="0" shadow="0">
            &#xa;            &#xa;&#xa;
            <root>
                &#xa;                &#xa;&#xa;
                <mxCell id="qs1-9PRKtySjOMCfbsDO-0"/>
                &#xa;                &#xa;&#xa;
                <mxCell id="qs1-9PRKtySjOMCfbsDO-1" parent="qs1-9PRKtySjOMCfbsDO-0"/>
                &#xa;                &#xa;&#xa;
                <mxCell id="8g0ea9DljymbM0pgvttS-0" value="&lt;b&gt;interaction &lt;/b&gt;Access files" style="shape=umlFrame;whiteSpace=wrap;html=1;width=165;height=30;boundedLbl=1;verticalAlign=middle;align=left;spacingLeft=5;shadow=0;sketch=0;" vertex="1" parent="qs1-9PRKtySjOMCfbsDO-1">
                    &#xa;                    &#xa;&#xa;
                    <mxGeometry x="175" y="260" width="750" height="530" as="geometry"/>
                    &#xa;                    &#xa;&#xa;
                </mxCell>
                &#xa;                &#xa;&#xa;
                <mxCell id="8g0ea9DljymbM0pgvttS-3" value="When users send requests to files, those requests should first be validated to check if they have the permissions to access." style="shape=note2;boundedLbl=1;whiteSpace=wrap;html=1;size=25;verticalAlign=middle;align=left;shadow=0;sketch=1;spacingLeft=10;spacing=2;spacingTop=0;" vertex="1" parent="qs1-9PRKtySjOMCfbsDO-1">
                    &#xa;                    &#xa;&#xa;
                    <mxGeometry x="185" y="70" width="190" height="110" as="geometry"/>
                    &#xa;                    &#xa;&#xa;
                </mxCell>
                &#xa;                &#xa;&#xa;
                <mxCell id="8g0ea9DljymbM0pgvttS-6" style="edgeStyle=orthogonalEdgeStyle;rounded=0;sketch=0;orthogonalLoop=1;jettySize=auto;html=1;endArrow=classic;endFill=1;strokeColor=#000000;" edge="1" parent="qs1-9PRKtySjOMCfbsDO-1" source="8g0ea9DljymbM0pgvttS-7">
                    &#xa;                    &#xa;&#xa;
                    <mxGeometry relative="1" as="geometry">
                        &#xa;                        &#xa;&#xa;
                        <mxPoint x="335.0588235294117" y="379.9999999999998" as="targetPoint"/>
                        &#xa;                        &#xa;&#xa;
                    </mxGeometry>
                    &#xa;                    &#xa;&#xa;
                </mxCell>
                &#xa;                &#xa;&#xa;
                <mxCell id="8g0ea9DljymbM0pgvttS-7" value="" style="ellipse;fillColor=#000000;strokeColor=none;shadow=0;sketch=0;align=left;" vertex="1" parent="qs1-9PRKtySjOMCfbsDO-1">
                    &#xa;                    &#xa;&#xa;
                    <mxGeometry x="320" y="320" width="30" height="30" as="geometry"/>
                    &#xa;                    &#xa;&#xa;
                </mxCell>
                &#xa;                &#xa;&#xa;
                <mxCell id="8g0ea9DljymbM0pgvttS-11" value="" style="ellipse;html=1;shape=endState;fillColor=#000000;strokeColor=#000000;shadow=0;sketch=0;align=left;" vertex="1" parent="qs1-9PRKtySjOMCfbsDO-1">
                    &#xa;                    &#xa;&#xa;
                    <mxGeometry x="320" y="750" width="30" height="30" as="geometry"/>
                    &#xa;                    &#xa;&#xa;
                </mxCell>
                &#xa;                &#xa;&#xa;
            </root>
            &#xa;            &#xa;&#xa;
        </mxGraphModel>
        &#xa;        &#xa;&#xa;
    </diagram>
</mxfile>